<?xml version="1.0" encoding="UTF-8" standalone="no"?>
<svg
   xmlns:osb="http://www.openswatchbook.org/uri/2009/osb"
   xmlns:dc="http://purl.org/dc/elements/1.1/"
   xmlns:cc="http://creativecommons.org/ns#"
   xmlns:rdf="http://www.w3.org/1999/02/22-rdf-syntax-ns#"
   xmlns:svg="http://www.w3.org/2000/svg"
   xmlns="http://www.w3.org/2000/svg"
   xmlns:sodipodi="http://sodipodi.sourceforge.net/DTD/sodipodi-0.dtd"
   xmlns:inkscape="http://www.inkscape.org/namespaces/inkscape"
   inkscape:export-ydpi="96"
   inkscape:export-xdpi="96"
   inkscape:export-filename="/Users/jennantilla/src/project/static/cosmas.png"
   width="210mm"
   height="297mm"
   viewBox="0 0 210 297"
   version="1.1"
   id="svg8"
   inkscape:version="1.0beta1 (32d4812, 2019-09-19)"
   sodipodi:docname="cosmas.svg">
  <defs
     id="defs2">
    <linearGradient
       id="linearGradient1065"
       osb:paint="solid">
      <stop
         style="stop-color:#000000;stop-opacity:1;"
         offset="0"
         id="stop1063" />
    </linearGradient>
  </defs>
  <sodipodi:namedview
     id="base"
     pagecolor="#ffffff"
     bordercolor="#666666"
     borderopacity="1.0"
     inkscape:pageopacity="0.0"
     inkscape:pageshadow="2"
     inkscape:zoom="0.30652896"
     inkscape:cx="300.2562"
     inkscape:cy="320.99985"
     inkscape:document-units="mm"
     inkscape:current-layer="layer1"
     inkscape:document-rotation="0"
     showgrid="false"
     inkscape:object-paths="true"
     inkscape:object-nodes="false"
     inkscape:snap-smooth-nodes="true"
     inkscape:snap-midpoints="true"
     inkscape:snap-others="false"
     inkscape:snap-bbox="true"
     inkscape:window-width="1280"
     inkscape:window-height="755"
     inkscape:window-x="0"
     inkscape:window-y="23"
     inkscape:window-maximized="0" />
  <metadata
     id="metadata5">
    <rdf:RDF>
      <cc:Work
         rdf:about="">
        <dc:format>image/svg+xml</dc:format>
        <dc:type
           rdf:resource="http://purl.org/dc/dcmitype/StillImage" />
        <dc:title></dc:title>
      </cc:Work>
    </rdf:RDF>
  </metadata>
  <g
     inkscape:label="Layer 1"
     inkscape:groupmode="layer"
     id="layer1">
    <path
       style="fill:none;stroke:#000000;stroke-width:0.264583px;stroke-linecap:butt;stroke-linejoin:miter;stroke-opacity:1"
       d="M 322.03572,207.13095 Z"
       id="path34"
       inkscape:connector-curvature="0" />
    <path
       style="fill:#cccccc;stroke:none;stroke-width:0.26458300000000001px;stroke-linecap:butt;stroke-linejoin:miter;stroke-opacity:1"
       d="m 130.46916,101.3605 8.60364,10.77318 c -36.54634,-10.23477 -47.220695,6.55968 -63.002186,26.60114 35.649786,-7.81891 56.398176,16.05553 77.336506,11.52378"
       id="path62"
       inkscape:connector-curvature="0"
       sodipodi:nodetypes="cccc" />
    <path
       style="fill:#000000;stroke:#000000;stroke-width:0.26458300000000001px;stroke-linecap:butt;stroke-linejoin:miter;stroke-opacity:1"
       d="M 122.20148,88.494333 C 91.224988,54.792248 111.73919,48.934472 139.09524,72.571428 c 32.30471,18.953656 104.0152,117.809042 32.1108,73.223792"
       id="path81"
       inkscape:connector-curvature="0"
       sodipodi:nodetypes="ccc" />
    <ellipse
       style="fill:#cccccc;stroke-width:0.264583"
       id="path60"
       cx="149.0248"
       cy="115.57681"
       rx="37.797619"
       ry="38.55357" />
    <path
       style="fill:#000000;stroke:#000000;stroke-width:0.264583px;stroke-linecap:butt;stroke-linejoin:miter;stroke-opacity:1"
       d="M 138.44147,77.023242 157.2381,66.523807 c 15.49301,11.302183 37.50017,28.244334 40.82142,46.113093 l -11.23711,15.7911 z"
       id="path950"
       inkscape:connector-curvature="0"
       sodipodi:nodetypes="ccccc" />
    <ellipse
       style="fill:#000000;stroke-width:0.435788"
       id="path952"
       cx="142.59596"
       cy="109.56641"
       rx="15.686106"
       ry="15.028492" />
    <ellipse
       ry="13.993976"
       rx="14.525578"
       cy="95.908791"
       cx="111.63876"
       id="path952-3"
       style="fill:#000000;stroke-width:0.404666" />
    <path
       style="fill:none;stroke:#000000;stroke-width:0.264583px;stroke-linecap:butt;stroke-linejoin:miter;stroke-opacity:1"
       d="m 121.67417,105.17477 c 7.96183,0.15949 7.57032,1.03862 8.30265,8.4382"
       id="path969"
       inkscape:connector-curvature="0"
       sodipodi:nodetypes="cc" />
    <path
       style="fill:#000000;stroke:#000000;stroke-width:0.264583px;stroke-linecap:butt;stroke-linejoin:miter;stroke-opacity:1"
       d="m 188.63288,122.66229 c 0.36261,23.06742 -10.83833,35.28866 -39.14207,31.46809 7.25479,0.46633 31.26049,-13.6002 40.28622,-14.68331"
       id="path971"
       inkscape:connector-curvature="0"
       sodipodi:nodetypes="ccc" />
    <path
       style="fill:none;stroke:#000000;stroke-width:0.264583px;stroke-linecap:butt;stroke-linejoin:miter;stroke-opacity:1"
       d="m 120.4077,142.7003 c 14.20977,-0.38504 27.07214,0.15202 34.70516,-10.7523"
       id="path975"
       inkscape:connector-curvature="0"
       sodipodi:nodetypes="cc" />
    <ellipse
       style="fill:#800080;stroke:none;stroke-width:0.264583"
       id="path977"
       cx="111.26591"
       cy="95.722298"
       rx="4.6133647"
       ry="4.708982" />
    <ellipse
       ry="4.708982"
       rx="4.6133647"
       cy="110.98041"
       cx="142.03014"
       id="path977-7"
       style="fill:#800080;stroke:none;stroke-width:0.264583" />
    <path
       style="fill:none;stroke:#000000;stroke-width:0.264583px;stroke-linecap:butt;stroke-linejoin:miter;stroke-opacity:1"
       d="m 155.11286,131.948 v 0 0"
       id="path1000"
       inkscape:connector-curvature="0" />
    <path
       style="fill:none;stroke:#000000;stroke-width:0.264583px;stroke-linecap:butt;stroke-linejoin:miter;stroke-opacity:1"
       d="m 155.11286,131.948 v 0"
       id="path1002"
       inkscape:connector-curvature="0" />
    <path
       style="fill:none;stroke:#000000;stroke-width:0.264583px;stroke-linecap:butt;stroke-linejoin:miter;stroke-opacity:1"
       d="m 153.04015,128.16479 c 2.44231,5.28619 1.96457,4.08688 7.50796,5.79218"
       id="path1004"
       inkscape:connector-curvature="0"
       sodipodi:nodetypes="cc" />
    <path
       style="fill:#cccccc;stroke:none;stroke-width:0.26458300000000001px;stroke-linecap:butt;stroke-linejoin:miter;stroke-opacity:1"
       d="m 48.999135,132.95786 0.228486,0.62453 c -10.373126,4.44953 -5.129121,7.61153 2.73902,7.48666 -9.324,4.87578 -8.146229,7.76626 2.301798,6.29158 -8.764162,5.71796 -7.951473,10.10822 1.76866,4.83433 l -0.09309,-0.25443"
       id="path1012"
       inkscape:connector-curvature="0"
       sodipodi:nodetypes="cccccc" />
    <path
       style="fill:#cccccc;stroke:none;stroke-width:0.26458300000000001px;stroke-linecap:butt;stroke-linejoin:miter;stroke-opacity:1"
       d="m 67.529808,154.21189 9.986546,8.99503 11.734029,-10.89174 -16.235715,-16.22556 c -0.67283,-18.55271 -8.518736,-14.36749 -8.499367,-2.00257"
       id="path1031"
       inkscape:connector-curvature="0"
       sodipodi:nodetypes="ccccc" />
    <path
       style="opacity:1;fill:#320080;fill-opacity:1;stroke:#000000;stroke-width:1.865;stroke-linecap:butt;stroke-linejoin:miter;stroke-miterlimit:4;stroke-dasharray:none;stroke-opacity:1"
       d="M 45.541925,126.74069 63.586,120.3833 l 10.394561,30.32521 -18.355304,6.09335 z"
       id="path1010"
       inkscape:connector-curvature="0"
       sodipodi:nodetypes="ccccc" />
    <path
       sodipodi:nodetypes="ccccccc"
       inkscape:connector-curvature="0"
       id="path1008"
       d="m 162.03861,154.15631 c -10.2426,-1.54523 -33.27254,2.75323 -33.27254,2.75323 -22.73327,5.9413 -26.76488,3.79921 -42.659414,-9.57613 -6.711316,11.19471 -13.417615,16.70201 -21.703397,26.26917 33.72625,23.79316 49.940281,29.51386 52.786511,65.89781 24.68465,135.59172 139.39202,-7.17987 56.94222,-88.24351 z"
       style="fill:#000000;stroke:#000000;stroke-width:0.264583px;stroke-linecap:butt;stroke-linejoin:miter;stroke-opacity:1" />
    <path
       sodipodi:nodetypes="cccccc"
       inkscape:connector-curvature="0"
       id="path1012-2"
       d="m 152.60343,212.62352 0.22849,0.62453 c -10.37313,4.44953 -5.12912,7.61153 2.73902,7.48666 -9.324,4.87578 -8.14623,7.76626 2.3018,6.29158 -8.76416,5.71796 -7.95148,10.10822 1.76866,4.83433 l -0.0931,-0.25443"
       style="fill:#cccccc;stroke:none;stroke-width:0.26458300000000001px;stroke-linecap:butt;stroke-linejoin:miter;stroke-opacity:1" />
    <path
       inkscape:connector-curvature="0"
       d="m 59.774197,129.60795 c -2.022813,0.57152 -2.319289,1.33388 -4.086253,3.08095 -0.454644,0.63357 -0.510027,1.39677 -0.638996,2.13956 -0.229861,1.26242 -0.244618,2.54773 -0.118646,3.82113 0.08541,1.26291 0.340184,2.50444 0.59513,3.74158 0.181887,0.80755 0.318115,1.62711 0.671163,2.38075 0.196124,0.3907 0.392289,0.79806 0.810303,0.9793 2.132637,0.017 2.022301,-1.87642 2.677474,-3.03276 0.332948,-0.57837 0.754481,-1.09783 1.132529,-1.64631 0.594356,-0.81973 1.038878,-1.73402 1.476234,-2.64367 0.04006,-0.065 0.0801,-0.13006 0.120144,-0.19509 0,0 -2.370107,1.83164 -2.370107,1.83164 v 0 c -0.02782,0.0625 -0.05568,0.12499 -0.08351,0.18748 -0.400326,0.90081 -0.860973,1.77514 -1.460028,2.56214 -0.416324,0.56221 -0.861427,1.11197 -1.177737,1.73949 -0.08849,0.20206 -0.158612,0.42159 -0.264134,0.61546 -0.0271,0.0498 -0.135629,0.18054 -0.09482,0.1412 2.049212,-1.97583 2.040127,-2.94555 2.016462,-1.86597 -0.01043,0.0215 -0.0074,0.0623 -0.03126,0.0648 -0.179182,0.0181 -0.515693,-0.63769 -0.588633,-0.75431 -0.334688,-0.72478 -0.470668,-1.51983 -0.678968,-2.28678 -0.283216,-1.21566 -0.506944,-2.44435 -0.596125,-3.69121 -0.09491,-1.27419 -0.08141,-2.5518 0.217376,-3.80241 0.142722,-0.72031 0.251385,-1.46192 0.771872,-2.02164 -0.606906,0.59604 -1.222359,1.1835 -1.820718,1.78812 -0.09218,0.0931 0.193618,-0.17783 0.301174,-0.25269 0.393164,-0.27366 0.861615,-0.44143 1.325944,-0.54169 0,0 1.894133,-2.33906 1.894133,-2.33906 z"
       id="path1210"
       style="opacity:1;fill:#ffffff;fill-opacity:1;stroke:none;stroke-width:0.606125;stroke-miterlimit:4;stroke-dasharray:none;stroke-opacity:1" />
    <path
       inkscape:connector-curvature="0"
       d="m 58.505901,132.5468 c 0.158924,0.51155 0.29782,1.02883 0.454688,1.54101 0.461588,1.44959 0.855564,2.91896 1.232376,4.39247 0.233116,0.91007 0.430266,1.82898 0.663944,2.73887 0.123585,0.50847 0.265927,1.01216 0.398271,1.51843 0.135756,0.36964 0.141506,0.79556 0.327627,1.14386 0.102025,0.15996 0.233683,0.26838 0.426416,0.28368 1.163442,-0.003 2.283008,-1.27483 2.384355,-2.43221 0.07623,-0.48298 0.282244,-0.94761 0.473291,-1.39708 0.192608,-0.46852 0.384346,-0.93209 0.538245,-1.41538 0.162381,-0.13482 0.211685,-0.65887 0.366745,-0.73622 0,0 -2.419139,1.85176 -2.419139,1.85176 v 0 c -0.01091,0.27097 -0.240879,0.49191 -0.284706,0.75796 -0.152776,0.47022 -0.360064,0.91805 -0.533294,1.3808 -0.191317,0.47671 -0.381185,0.95549 -0.483535,1.46065 -0.4699,1.0101 -0.01031,-0.0145 1.99058,-1.93824 0.01935,-0.0185 0.02169,0.0535 0.01409,0.0793 -0.0039,0.0134 -0.09113,0.0241 -0.09778,0.0446 -0.103097,0.0501 -0.05937,0.13243 -0.16878,-0.0109 -0.155769,-0.33711 -0.195635,-0.72007 -0.316081,-1.06967 -0.137705,-0.50194 -0.265575,-1.00659 -0.412125,-1.506 -0.24646,-0.88271 -0.529556,-1.75482 -0.776625,-2.63741 -0.415531,-1.48197 -0.811827,-2.96946 -1.143083,-4.47287 -0.123972,-0.53519 -0.265458,-1.06596 -0.38738,-1.60162 0,0 -2.248189,2.02428 -2.248189,2.02428 z"
       id="path1212"
       style="opacity:1;fill:#80008b;fill-opacity:1;stroke:none;stroke-width:0.606125;stroke-miterlimit:4;stroke-dasharray:none;stroke-opacity:1" />
    <path
       inkscape:connector-curvature="0"
       d="m 57.781583,131.74655 c 0.251826,0.18998 0.512326,0.37211 0.737954,0.59339 0.134938,0.14296 0.305761,0.2547 0.471953,0.35936 0.164209,0.0654 0.296896,0.17167 0.409042,0.30659 0.103533,0.14445 0.253362,0.24319 0.353317,0.39075 0.04233,0.1123 0.145999,0.16542 0.234909,0.23595 0,0 2.128582,-2.17538 2.128582,-2.17538 v 0 c -0.104711,-0.085 -0.111589,-0.0662 -0.182791,-0.1766 -0.114732,-0.14629 -0.257844,-0.2592 -0.376117,-0.40244 -0.133422,-0.14831 -0.293964,-0.32561 -0.484517,-0.39256 -0.15167,-0.045 -0.296573,-0.19848 -0.426513,-0.28554 -0.240526,-0.21982 -0.503579,-0.40824 -0.752458,-0.61819 0,0 -2.113364,2.16466 -2.113361,2.16467 z"
       id="path1216"
       style="opacity:1;fill:#ffffff;fill-opacity:1;stroke:none;stroke-width:0.606125;stroke-miterlimit:4;stroke-dasharray:none;stroke-opacity:1" />
    <path
       inkscape:connector-curvature="0"
       d="m 59.44807,142.97405 c 0.119904,-0.22183 0.247219,-0.43959 0.376053,-0.65632 0.01445,-0.0242 0.02892,-0.0482 0.0434,-0.0723 0,0 -1.471748,1.12931 -1.471748,1.12931 v 0 c -0.01246,0.0226 -0.02495,0.0451 -0.03741,0.0677 -0.125044,0.22353 -0.252584,0.44577 -0.386354,0.66421 0,0 1.476057,-1.13261 1.476057,-1.13261 z"
       id="path1218"
       style="opacity:1;fill:#ffffff;fill-opacity:1;stroke:none;stroke-width:0.606125;stroke-miterlimit:4;stroke-dasharray:none;stroke-opacity:1" />
  </g>
</svg>
